<?xml version="1.0" encoding="UTF-8"?>
<svg width="24px" height="24px" viewBox="0 0 24 24" version="1.1" xmlns="http://www.w3.org/2000/svg" xmlns:xlink="http://www.w3.org/1999/xlink">
    <!-- Generator: Sketch 41.2 (35397) - http://www.bohemiancoding.com/sketch -->
    <title>Eye</title>
    <desc>Created with Sketch.</desc>
    <defs></defs>
    <g id="00.Library" stroke="none" stroke-width="1" fill="none" fill-rule="evenodd">
        <g id="Library" transform="translate(-1522.000000, -159.000000)" fill="currentColor">
            <g id="Group-4-Copy-17" transform="translate(1522.000000, 159.000000)">
                <g id="noun_20035" transform="translate(3.000000, 8.000000)">
                    <g id="Group">
                        <path d="M16.41006,5.72034483 C13.79358,3.21396552 11.12526,2.01896552 8.48124,2.16655172 C4.4784,2.39034483 1.79118,5.59396552 1.76436,5.62655172 L0,4.29103448 C0.13446,4.12810345 3.35088,0.295517241 8.3502,0.0160344828 C11.664,-0.167931034 14.91012,1.23724138 18,4.19724138 L16.41006,5.72034483 Z" id="Shape"></path>
                        <path d="M9.04356,9.8837931 C7.0083,9.8837931 5.35248,8.29775862 5.35248,6.34827586 C5.35248,4.3987931 7.0083,2.81275862 9.04356,2.81275862 C11.07882,2.81275862 12.73428,4.3987931 12.73428,6.34827586 C12.73428,8.29775862 11.07882,9.8837931 9.04356,9.8837931 Z M9.04356,4.96689655 C8.24832,4.96689655 7.6014,5.58655172 7.6014,6.34844828 C7.6014,7.11017241 8.24832,7.72982759 9.04356,7.72982759 C9.83862,7.72982759 10.48554,7.11017241 10.48554,6.34844828 C10.48554,5.58637931 9.83862,4.96689655 9.04356,4.96689655 Z" id="Shape"></path>
                    </g>
                </g>
            </g>
        </g>
    </g>
</svg>