<?xml version="1.0" encoding="UTF-8"?>
<svg width="24px" height="24px" viewBox="0 0 24 24" version="1.1" xmlns="http://www.w3.org/2000/svg" xmlns:xlink="http://www.w3.org/1999/xlink">
    <!-- Generator: Sketch 41.2 (35397) - http://www.bohemiancoding.com/sketch -->
    <title>Facebook</title>
    <desc>Created with Sketch.</desc>
    <defs></defs>
    <g id="00.Library" stroke="none" stroke-width="1" fill="none" fill-rule="evenodd">
        <g id="Library" transform="translate(-1170.000000, -159.000000)" fill="currentcolor">
            <g id="Group-4-Copy-8" transform="translate(1170.000000, 159.000000)">
                <path d="M11.9304,2 C6.4548,2 2,6.4548 2,11.9304 C2,17.4056 6.4548,21.8608 11.9304,21.8608 C17.4056,21.8608 21.8608,17.4056 21.8608,11.9304 C21.8608,6.4548 17.4064,2 11.9304,2 Z M14.4,12.28 L12.7844,12.28 L12.7844,18.0384 L10.3904,18.0384 L10.3904,12.28 L9.2524,12.28 L9.2524,10.2448 L10.3904,10.2448 L10.3904,8.9284 C10.3904,7.9856 10.8384,6.5124 12.8064,6.5124 L14.5804,6.5192 L14.5804,8.4948 L13.2928,8.4948 C13.0832,8.4948 12.7852,8.5996 12.7852,9.0492 L12.7852,10.2452 L14.6092,10.2452 L14.4,12.28 Z" id="Shape"></path>
            </g>
        </g>
    </g>
</svg>