<?xml version="1.0" encoding="UTF-8"?>
<svg width="24px" height="24px" viewBox="0 0 24 24" version="1.1" xmlns="http://www.w3.org/2000/svg" xmlns:xlink="http://www.w3.org/1999/xlink">
    <!-- Generator: Sketch 41.2 (35397) - http://www.bohemiancoding.com/sketch -->
    <title>Filter</title>
    <desc>Created with Sketch.</desc>
    <defs></defs>
    <g id="00.Library" stroke="none" stroke-width="1" fill="none" fill-rule="evenodd">
        <g id="Library" transform="translate(-1830.000000, -159.000000)" fill="currentColor">
            <g id="Group-4" transform="translate(1830.000000, 159.000000)">
                <g id="noun_613778_cc" transform="translate(3.000000, 3.000000)">
                    <g id="Group">
                        <g id="Shape">
                            <path d="M2.625,13.5 L2.625,11.8125 C2.625,11.502 2.877,11.25 3.1875,11.25 L7.3125,11.25 C7.623,11.25 7.875,11.502 7.875,11.8125 L7.875,13.5 L17.25,13.5 C17.5605,13.5 17.8125,13.752 17.8125,14.0625 C17.8125,14.373 17.5605,14.625 17.25,14.625 L7.875,14.625 L7.875,15.9375 C7.875,16.248 7.623,16.5 7.3125,16.5 L3.1875,16.5 C2.877,16.5 2.625,16.248 2.625,15.9375 L2.625,14.625 L0.75,14.625 C0.4395,14.625 0.1875,14.373 0.1875,14.0625 C0.1875,13.752 0.4395,13.5 0.75,13.5 L2.625,13.5 Z M6.75,12.375 L3.75,12.375 L3.75,15.375 L6.75,15.375 L6.75,12.375 Z M15.375,7.8615 L15.375,6.174 C15.375,5.8635 15.123,5.6115 14.8125,5.6115 L10.6875,5.6115 C10.377,5.6115 10.125,5.8635 10.125,6.174 L10.125,7.8615 L0.75,7.8615 C0.4395,7.8615 0.1875,8.1135 0.1875,8.424 C0.1875,8.734875 0.4395,8.9865 0.75,8.9865 L10.125,8.9865 L10.125,10.299 C10.125,10.609875 10.377,10.8615 10.6875,10.8615 L14.8125,10.8615 C15.123,10.8615 15.375,10.609875 15.375,10.299 L15.375,8.9865 L17.25,8.9865 C17.5605,8.9865 17.8125,8.734875 17.8125,8.424 C17.8125,8.1135 17.5605,7.8615 17.25,7.8615 L15.375,7.8615 Z M14.25,9.7365 L14.25,6.7365 L11.25,6.7365 L11.25,9.7365 L14.25,9.7365 Z M2.625,2.25 L2.625,0.5625 C2.625,0.252 2.877,0 3.1875,0 L7.3125,0 C7.623,0 7.875,0.252 7.875,0.5625 L7.875,2.25 L17.25,2.25 C17.5605,2.25 17.8125,2.502 17.8125,2.8125 C17.8125,3.121875 17.56275,3.373125 17.25375,3.375 L17.25,3.375 L7.875,3.375 L7.875,4.6875 C7.875,4.998 7.623,5.25 7.3125,5.25 L3.1875,5.25 C2.877,5.25 2.625,4.998 2.625,4.6875 L2.625,3.375 L0.75,3.375 C0.4395,3.375 0.1875,3.123 0.1875,2.8125 C0.1875,2.502 0.4395,2.25 0.75,2.25 L2.625,2.25 Z M6.75,1.125 L3.75,1.125 L3.75,4.125 L6.75,4.125 L6.75,1.125 Z"></path>
                        </g>
                    </g>
                </g>
            </g>
        </g>
    </g>
</svg>