<?xml version="1.0" encoding="UTF-8"?>
<svg width="24px" height="24px" viewBox="0 0 24 24" version="1.1" xmlns="http://www.w3.org/2000/svg" xmlns:xlink="http://www.w3.org/1999/xlink">
    <!-- Generator: Sketch 41.2 (35397) - http://www.bohemiancoding.com/sketch -->
    <title>Instagram</title>
    <desc>Created with Sketch.</desc>
    <defs></defs>
    <g id="00.Library" stroke="none" stroke-width="1" fill="none" fill-rule="evenodd">
        <g id="Library" transform="translate(-1434.000000, -159.000000)" fill="currentColor">
            <g id="Group-4-Copy-15" transform="translate(1434.000000, 159.000000)">
                <g id="Group-9" transform="translate(2.000000, 2.000000)">
                    <g id="instagram-logo">
                        <g id="Capa_1">
                            <g id="Group">
                                <path d="M9.93,11.9184 C11.0256,11.9184 11.9188,11.0268 11.9188,9.9304 C11.9188,9.4976 11.7772,9.098 11.5428,8.7716 C11.1816,8.2708 10.5944,7.9424 9.9312,7.9424 C9.2676,7.9424 8.6808,8.2704 8.3188,8.7712 C8.0836,9.0976 7.9432,9.4972 7.9428,9.93 C7.9416,11.0264 8.834,11.9184 9.93,11.9184 Z" id="Shape"></path>
                                <polygon id="Shape" points="14.2712 7.4984 14.2712 5.832 14.2712 5.584 14.022 5.5848 12.3564 5.59 12.3628 7.5048"></polygon>
                                <path d="M9.9304,0 C4.4548,0 0,4.4548 0,9.9304 C0,15.4056 4.4548,19.8608 9.9304,19.8608 C15.4056,19.8608 19.8608,15.4056 19.8608,9.9304 C19.8608,4.4548 15.4064,0 9.9304,0 Z M15.578,8.7716 L15.578,13.3956 C15.578,14.6 14.5988,15.5788 13.3952,15.5788 L6.4656,15.5788 C5.2616,15.5788 4.2828,14.6 4.2828,13.3956 L4.2828,8.7716 L4.2828,6.466 C4.2828,5.262 5.2616,4.2832 6.4656,4.2832 L13.3948,4.2832 C14.5988,4.2832 15.578,5.262 15.578,6.466 L15.578,8.7716 Z" id="Shape"></path>
                                <path d="M13.0196,9.9304 C13.0196,11.6332 11.634,13.0196 9.9304,13.0196 C8.2268,13.0196 6.8416,11.6332 6.8416,9.9304 C6.8416,9.5208 6.9232,9.1292 7.0688,8.7716 L5.3828,8.7716 L5.3828,13.3956 C5.3828,13.9932 5.868,14.4772 6.4652,14.4772 L13.3944,14.4772 C13.9908,14.4772 14.4768,13.9932 14.4768,13.3956 L14.4768,8.7716 L12.79,8.7716 C12.9368,9.1292 13.0196,9.5208 13.0196,9.9304 Z" id="Shape"></path>
                            </g>
                        </g>
                    </g>
                </g>
            </g>
        </g>
    </g>
</svg>