<svg width="139" height="32" viewBox="0 0 139 32" xmlns="http://www.w3.org/2000/svg"><title>F5E31104-79C4-4F07-BCC2-BB92FB23D643</title><g fill="none" fill-rule="evenodd"><path fill="#E5E5E5" opacity=".25" d="M-369-59h1920v396H-369z"/><path fill="#FF0325" d="M0 0h139v32H0z"/><path d="M10.448 6.504V24h3.84V6.504h-3.84zm11.28 9.672c-.624 0-1.296.288-1.728.696a2.475 2.475 0 0 0-.744 1.752c0 .648.312 1.272.744 1.704.456.456 1.08.72 1.728.72a2.44 2.44 0 0 0 1.704-.72c.48-.456.744-1.08.744-1.704 0-.576-.264-1.272-.744-1.752-.432-.408-1.104-.696-1.704-.696zm6.432 2.448c0 1.44-.48 2.808-1.656 3.96-1.416 1.392-3.072 1.776-4.8 1.776-1.56 0-3.288-.312-4.776-1.776-1.176-1.152-1.656-2.52-1.656-3.96 0-1.92.864-3.168 1.656-3.936.888-.864 2.448-1.776 4.776-1.776 2.376 0 3.912.936 4.8 1.776.792.768 1.656 2.016 1.656 3.936zm7.032-2.448c-.624 0-1.296.288-1.728.696a2.475 2.475 0 0 0-.744 1.752c0 .648.312 1.272.744 1.704.456.456 1.08.72 1.728.72a2.44 2.44 0 0 0 1.704-.72c.48-.456.744-1.08.744-1.704 0-.576-.264-1.272-.744-1.752-.432-.408-1.104-.696-1.704-.696zm6.432 2.448c0 1.44-.48 2.808-1.656 3.96-1.416 1.392-3.072 1.776-4.8 1.776-1.56 0-3.288-.312-4.776-1.776-1.176-1.152-1.656-2.52-1.656-3.96 0-1.92.864-3.168 1.656-3.936.888-.864 2.448-1.776 4.776-1.776 2.376 0 3.912.936 4.8 1.776.792.768 1.656 2.016 1.656 3.936zm1.008-12.12V24h3.84v-4.392L50.384 24h5.328l-5.472-5.784 5.064-4.944h-5.208l-3.624 3.864V6.504h-3.84zM55.856 24h3.84v-5.304c0-.672 0-1.704.672-2.352.312-.312.648-.384 1.056-.384.384 0 .816.072 1.152.432.432.456.504 1.272.504 2.304V24h3.84v-5.496c0-.528.048-1.416.696-2.04.336-.312.696-.432 1.128-.432.504 0 .792.168 1.008.36.432.408.552 1.176.552 2.304V24h3.84v-6.984c0-.744-.048-2.016-1.008-2.952-.888-.864-2.184-.984-2.976-.984-.72 0-1.464.096-2.232.528-.48.264-1.032.72-1.464 1.488-.264-.528-.696-1.128-1.488-1.536-.576-.312-1.296-.48-2.064-.48-1.056 0-2.304.384-3.216 1.488v-1.296h-3.84V24zm28.056-9.696v-1.032h3.84V24h-3.84v-1.176c-.888 1.224-2.28 1.536-3.336 1.536-1.152 0-2.568-.336-3.864-1.704-1.032-1.104-1.536-2.328-1.536-3.936 0-2.016.792-3.432 1.656-4.296.912-.912 2.328-1.512 3.864-1.512 1.728 0 2.76.888 3.216 1.392zm-2.352 1.872c-.48 0-1.128.168-1.68.696a2.51 2.51 0 0 0-.768 1.752c0 .624.264 1.296.744 1.752.408.384 1.08.72 1.728.72.624 0 1.248-.264 1.728-.744a2.33 2.33 0 0 0 .72-1.728c0-.504-.144-1.176-.744-1.752-.36-.336-.912-.696-1.728-.696zm6.96 6.936l1.368-2.664a5.494 5.494 0 0 0 1.536.792c.48.168 1.08.264 1.488.264.288 0 .744-.072.984-.288.168-.168.192-.312.192-.504 0-.168-.024-.336-.192-.48-.24-.216-.624-.288-1.008-.384l-1.008-.24c-.528-.12-1.296-.312-1.872-.936-.408-.432-.696-1.032-.696-1.848 0-1.032.408-1.992 1.008-2.616.816-.84 2.256-1.296 3.84-1.296s2.808.432 3.432.696l-1.296 2.448c-.528-.24-1.32-.528-2.016-.528-.384 0-.648.072-.888.216-.216.12-.336.288-.336.528 0 .336.216.504.456.6.36.144.672.144 1.272.312l.696.192c.504.144 1.272.528 1.584.84.528.504.816 1.344.816 2.136 0 1.296-.552 2.16-1.08 2.664-1.248 1.248-3.072 1.344-3.96 1.344-.96 0-2.472-.12-4.32-1.248zm16.56-6.696h-2.184V24h-3.84v-7.584h-1.224v-3.144h1.224V9.744h3.84v3.528h2.184v3.144zm11.616 2.52v.408h-7.992c0 .576.216 1.344.672 1.8.24.24.72.528 1.584.528.096 0 .768-.024 1.248-.288.24-.144.504-.384.672-.72h3.672c-.168.6-.504 1.44-1.296 2.208-.792.768-2.04 1.488-4.368 1.488-1.416 0-3.12-.312-4.44-1.632-.696-.696-1.584-2.016-1.584-4.056 0-1.8.672-3.24 1.608-4.152.888-.864 2.28-1.56 4.392-1.56 1.248 0 2.856.264 4.128 1.464 1.512 1.44 1.704 3.312 1.704 4.512zm-7.872-1.8h4.344c-.096-.408-.336-.864-.624-1.152-.504-.504-1.2-.576-1.584-.576-.648 0-1.152.168-1.56.576a2.19 2.19 0 0 0-.576 1.152zm8.88 6.864V13.272h3.84v1.752c.384-.72.936-1.2 1.512-1.488.576-.312 1.272-.432 1.992-.432.096 0 .264.024.768.048v3.624c-.192-.096-.72-.384-1.656-.384-.504 0-1.2.072-1.752.576-.816.744-.864 1.872-.864 2.448V24h-3.84zm9.984.456a2.433 2.433 0 0 1-1.752-.744 2.444 2.444 0 0 1-.744-1.752c0-.864.432-1.44.744-1.752a2.433 2.433 0 0 1 1.752-.744c.6 0 1.248.24 1.776.768.408.408.696.936.696 1.728 0 .792-.288 1.32-.72 1.752a2.457 2.457 0 0 1-1.752.744z" fill="#FFF"/></g></svg>