<?xml version="1.0" encoding="UTF-8"?>
<svg width="24px" height="24px" viewBox="0 0 24 24" version="1.1" xmlns="http://www.w3.org/2000/svg" xmlns:xlink="http://www.w3.org/1999/xlink">
    <!-- Generator: Sketch 41.2 (35397) - http://www.bohemiancoding.com/sketch -->
    <title>Notification</title>
    <desc>Created with Sketch.</desc>
    <defs>
        <path d="M16,7.2 C16,3.2235498 12.8659932,0 9,0 C5.13400675,0 2,3.2235498 2,7.2 L2,17 L16,17 L16,7.2 Z" id="path-1"></path>
        <mask id="mask-2" maskContentUnits="userSpaceOnUse" maskUnits="objectBoundingBox" x="0" y="0" width="14" height="17" fill="white">
            <use xlink:href="#path-1"></use>
        </mask>
    </defs>
    <g id="00.Library" stroke="none" stroke-width="1" fill="none" fill-rule="evenodd">
        <g id="Library" transform="translate(-1126.000000, -159.000000)">
            <g id="Group-4-Copy-7" transform="translate(1126.000000, 159.000000)">
                <g id="Group-7" transform="translate(3.000000, 3.000000)">
                    <use id="Combined-Shape" stroke="currentcolor" mask="url(#mask-2)" stroke-width="4" xlink:href="#path-1"></use>
                    <path d="M13,15 C13,17.209139 11.2046438,19 9,19 C6.790861,19 5,17.2046438 5,15 C5.00284478,14.9999942 5.0056868,15 5.0085302,15 L12.9914698,15 C12.9943146,15 12.997158,14.9999941 13,14.9999823 Z" id="Combined-Shape" fill="currentcolor"></path>
                    <rect id="Rectangle" fill="currentcolor" x="0" y="15" width="18" height="2"></rect>
                </g>
            </g>
        </g>
    </g>
</svg>