<?xml version="1.0" encoding="UTF-8"?>
<svg width="24px" height="24px" viewBox="0 0 24 24" version="1.1" xmlns="http://www.w3.org/2000/svg" xmlns:xlink="http://www.w3.org/1999/xlink">
    <!-- Generator: Sketch 41.2 (35397) - http://www.bohemiancoding.com/sketch -->
    <title>Pencil</title>
    <desc>Created with Sketch.</desc>
    <defs></defs>
    <g id="00.Library" stroke="none" stroke-width="1" fill="none" fill-rule="evenodd">
        <g id="Library" transform="translate(-2050.000000, -159.000000)" fill="currentcolor">
            <g id="Group-2-Copy-9" transform="translate(2050.000000, 159.000000)">
                <g id="noun_628577_cc" transform="translate(2.000000, 2.000000)">
                    <g id="Group">
                        <g id="noun_626294_cc">
                            <g id="edit">
                                <path d="M14.3144543,17.371753 L17.4133013,14.272906 L18.9627247,18.9211765 L14.3144543,17.371753 Z M0.658183462,3.72734 L1.91511374,4.98427028 L5.01396072,1.8854233 L3.75703044,0.620587795 C3.59517857,0.459804068 3.3338959,0.459804068 3.17204402,0.620587795 L0.658183462,3.13840097 C0.579735839,3.2163132 0.535619137,3.32230672 0.535619137,3.43287048 C0.535619137,3.54343425 0.579735839,3.64942776 0.658183462,3.72734 Z M13.5397425,16.5970412 L16.6385895,13.4981943 L5.79657769,2.65618243 L2.68982549,5.75898202 L13.5397425,16.5970412 Z" id="Shape" transform="translate(9.749172, 9.710588) scale(-1, 1) translate(-9.749172, -9.710588) "></path>
                            </g>
                        </g>
                    </g>
                </g>
            </g>
        </g>
    </g>
</svg>