<?xml version="1.0" encoding="UTF-8"?>
<svg width="24px" height="24px" viewBox="0 0 24 24" version="1.1" xmlns="http://www.w3.org/2000/svg" xmlns:xlink="http://www.w3.org/1999/xlink">
    <!-- Generator: Sketch 41.2 (35397) - http://www.bohemiancoding.com/sketch -->
    <title>Reset</title>
    <desc>Created with Sketch.</desc>
    <defs></defs>
    <g id="00.Library" stroke="none" stroke-width="1" fill="none" fill-rule="evenodd">
        <g id="Library" transform="translate(-1962.000000, -159.000000)" fill="currentColor">
            <g id="Group-2-Copy-7" transform="translate(1962.000000, 159.000000)">
                <path d="M18.3761755,5.62382445 C14.8777429,2.12539185 9.12225705,2.12539185 5.62382445,5.62382445 C2.12539185,9.12225705 2.12539185,14.8777429 5.62382445,18.3761755 C9.12225705,21.8746082 14.8777429,21.8746082 18.3761755,18.3761755 C21.8746082,14.8777429 21.8746082,9.23510972 18.3761755,5.62382445 Z M13.4106583,14.6520376 L11.9435737,13.184953 L10.476489,14.6520376 C10.137931,14.9905956 9.68652038,14.9905956 9.34796238,14.6520376 C9.00940439,14.3134796 9.00940439,13.862069 9.34796238,13.523511 L10.815047,12.0564263 L9.34796238,10.5893417 C9.00940439,10.2507837 9.00940439,9.79937304 9.34796238,9.46081505 C9.68652038,9.12225705 10.137931,9.12225705 10.476489,9.46081505 L11.9435737,10.9278997 L13.4106583,9.46081505 C13.7492163,9.12225705 14.200627,9.12225705 14.539185,9.46081505 C14.8777429,9.79937304 14.8777429,10.2507837 14.539185,10.5893417 L13.0721003,12.0564263 L14.539185,13.523511 C14.8777429,13.862069 14.8777429,14.3134796 14.539185,14.6520376 C14.3134796,14.9905956 13.7492163,14.9905956 13.4106583,14.6520376 Z" id="Shape"></path>
            </g>
        </g>
    </g>
</svg>