<?xml version="1.0" encoding="UTF-8"?>
<svg width="24px" height="24px" viewBox="0 0 24 24" version="1.1" xmlns="http://www.w3.org/2000/svg" xmlns:xlink="http://www.w3.org/1999/xlink">
    <!-- Generator: Sketch 41.2 (35397) - http://www.bohemiancoding.com/sketch -->
    <title>Share</title>
    <desc>Created with Sketch.</desc>
    <defs></defs>
    <g id="00.Library" stroke="none" stroke-width="1" fill="none" fill-rule="evenodd">
        <g id="Library" transform="translate(-1258.000000, -159.000000)" stroke-width="0.5" stroke="currentColor" fill="currentColor">
            <g id="Group-4-Copy-11" transform="translate(1258.000000, 159.000000)">
                <g id="noun_711924_cc" transform="translate(3.000000, 3.000000)">
                    <g id="Group">
                        <path d="M14.6131579,12.1796834 C13.4763158,12.1796834 12.4815789,12.7496042 11.8657895,13.6282322 L6.60789474,10.6598945 C6.65526316,10.4224274 6.70263158,10.1612137 6.70263158,9.9 C6.70263158,9.66253298 6.67894737,9.42506596 6.63157895,9.18759894 L11.9131579,6.19551451 C12.5289474,7.05039578 13.5236842,7.59656992 14.6368421,7.59656992 C16.4842105,7.59656992 18,6.076781 18,4.22453826 C18,2.37229551 16.4605263,0.9 14.6131579,0.9 C12.7657895,0.9 11.25,2.41978892 11.25,4.27203166 C11.25,4.58073879 11.2973684,4.88944591 11.3684211,5.17440633 L6.15789474,8.11899736 C5.56578947,7.19287599 4.52368421,6.55171504 3.33947368,6.55171504 C1.49210526,6.55171504 0,8.04775726 0,9.9 C0,11.7522427 1.51578947,13.2720317 3.33947368,13.2720317 C4.5,13.2720317 5.54210526,12.6546174 6.13421053,11.7522427 L11.3684211,14.6968338 C11.2973684,14.9817942 11.25,15.2667546 11.25,15.551715 C11.25,17.4039578 12.7421053,18.9 14.5894737,18.9 C16.4368421,18.9 17.9289474,17.4039578 17.9289474,15.551715 C17.9289474,13.6994723 16.4368421,12.1796834 14.6131579,12.1796834 Z M14.6131579,1.96860158 C15.8684211,1.96860158 16.8868421,2.98970976 16.8868421,4.24828496 C16.8868421,5.50686016 15.8684211,6.52796834 14.6131579,6.52796834 C13.3578947,6.52796834 12.3394737,5.50686016 12.3394737,4.24828496 C12.3394737,3.01345646 13.3578947,1.96860158 14.6131579,1.96860158 Z M3.33947368,12.1796834 C2.08421053,12.1796834 1.06578947,11.1585752 1.06578947,9.9 C1.06578947,8.6414248 2.08421053,7.62031662 3.33947368,7.62031662 C4.59473684,7.62031662 5.61315789,8.6414248 5.61315789,9.9 C5.61315789,11.1585752 4.59473684,12.1796834 3.33947368,12.1796834 Z M14.6131579,17.8076517 C13.3578947,17.8076517 12.3394737,16.7865435 12.3394737,15.5279683 C12.3394737,14.2693931 13.3578947,13.2720317 14.6131579,13.2720317 C15.8684211,13.2720317 16.8868421,14.2931398 16.8868421,15.551715 C16.8868421,16.8102902 15.8684211,17.8076517 14.6131579,17.8076517 Z" id="Shape"></path>
                    </g>
                </g>
            </g>
        </g>
    </g>
</svg>