<svg style="position: absolute; width: 0; height: 0; overflow: hidden;" version="1.1" xmlns="http://www.w3.org/2000/svg" xmlns:xlink="http://www.w3.org/1999/xlink">
<defs>
<symbol id="icon-pencil" viewBox="0 0 32 32">
<title>pencil</title>
<path d="M27.613 9.387c0.52-0.52 0.52-1.387 0-1.88l-3.12-3.12c-0.493-0.52-1.36-0.52-1.88 0l-2.453 2.44 5 5zM4 23v5h5l14.747-14.76-5-5-14.747 14.76z"></path>
</symbol>
<symbol id="icon-add" viewBox="0 0 32 32">
<title>add</title>
<path fill="#ff3837" style="fill: var(--color1, #ff3837)" d="M4 4h24v24h-24v-24z"></path>
<path fill="#fff" style="fill: var(--color2, #fff)" d="M14 10h4v12h-4v-12z"></path>
<path fill="#fff" style="fill: var(--color2, #fff)" d="M10 18v-4h12v4h-12z"></path>
</symbol>
<symbol id="icon-arrow-right" viewBox="0 0 32 32">
<title>arrow-right</title>
<path stroke-width="2" stroke-miterlimit="4" stroke-linecap="butt" stroke-linejoin="miter" d="M12.731 6l9.863 9.863-9.928 9.928"></path>
</symbol>
<symbol id="icon-camera" viewBox="0 0 32 32">
<title>camera</title>
<path fill="none" stroke="#444" stroke-width="4" stroke-miterlimit="4" stroke-linecap="butt" stroke-linejoin="miter" style="stroke: var(--color3, #444)" d="M3.562 8.549h25.001v18.334h-25.001v-18.334z"></path>
<path d="M3.562 5.216h7.5v1.667h-7.5v-1.667z"></path>
<path fill="none" stroke="#444" stroke-width="4" stroke-miterlimit="4" stroke-linecap="butt" stroke-linejoin="miter" style="stroke: var(--color3, #444)" d="M21.063 17.716c0 2.762-2.239 5-5 5s-5-2.239-5-5c0-2.762 2.239-5 5-5s5 2.239 5 5z"></path>
</symbol>
<symbol id="icon-collections" viewBox="0 0 32 32">
<title>collections</title>
<path stroke-width="5.3333" stroke-miterlimit="4" stroke-linecap="butt" stroke-linejoin="miter" d="M6.667 2.667h20v1.333h-20v-1.333z"></path>
<path stroke-width="5.3333" stroke-miterlimit="4" stroke-linecap="butt" stroke-linejoin="miter" d="M4 5.333h24v1.333h-24v-1.333z"></path>
<path stroke-width="5.3333" stroke-miterlimit="4" stroke-linecap="butt" stroke-linejoin="miter" d="M2.667 8h26.667v21.333h-26.667v-21.333z"></path>
</symbol>
<symbol id="icon-cross2" viewBox="0 0 32 32">
<title>cross2</title>
<path d="M27.348 3.667l1.339 1.315-11.155 10.953 11.155 10.953-1.339 1.315-11.155-10.953-11.155 10.953-1.339-1.315 11.155-10.953-11.155-10.953 1.339-1.315 11.155 10.953z"></path>
</symbol>
<symbol id="icon-eye" viewBox="0 0 32 32">
<title>eye</title>
<path d="M25.88 18.294c-3.489-3.342-7.046-4.935-10.572-4.738-5.337 0.298-8.92 4.57-8.956 4.613l-2.352-1.781c0.179-0.217 4.468-5.327 11.134-5.7 4.418-0.245 8.747 1.628 12.866 5.575l-2.12 2.031z"></path>
<path d="M16.058 23.845c-2.714 0-4.921-2.115-4.921-4.714s2.208-4.714 4.921-4.714c2.714 0 4.921 2.115 4.921 4.714s-2.207 4.714-4.921 4.714zM16.058 17.289c-1.060 0-1.923 0.826-1.923 1.842s0.863 1.842 1.923 1.842c1.060 0 1.923-0.826 1.923-1.842s-0.863-1.842-1.923-1.842z"></path>
</symbol>
<symbol id="icon-facebook2" viewBox="0 0 32 32">
<title>facebook2</title>
<path d="M15.907 2.667c-7.301 0-13.241 5.94-13.241 13.241s5.94 13.241 13.241 13.241c7.3 0 13.241-5.94 13.241-13.241s-5.939-13.241-13.241-13.241zM19.2 16.373h-2.154v7.678h-3.192v-7.678h-1.517v-2.714h1.517v-1.755c0-1.257 0.597-3.221 3.221-3.221l2.365 0.009v2.634h-1.717c-0.279 0-0.677 0.14-0.677 0.739v1.595h2.432l-0.279 2.713z"></path>
</symbol>
<symbol id="icon-filter" viewBox="0 0 32 32">
<title>filter</title>
<path d="M7.5 22v-2.25c0-0.414 0.336-0.75 0.75-0.75h5.5c0.414 0 0.75 0.336 0.75 0.75v2.25h12.5c0.414 0 0.75 0.336 0.75 0.75s-0.336 0.75-0.75 0.75h-12.5v1.75c0 0.414-0.336 0.75-0.75 0.75h-5.5c-0.414 0-0.75-0.336-0.75-0.75v-1.75h-2.5c-0.414 0-0.75-0.336-0.75-0.75s0.336-0.75 0.75-0.75h2.5zM13 20.5h-4v4h4v-4zM24.5 14.482h2.5c0.414 0 0.75 0.336 0.75 0.75s-0.336 0.75-0.75 0.75h-2.5v1.75c0 0.415-0.336 0.75-0.75 0.75h-5.5c-0.414 0-0.75-0.335-0.75-0.75v-1.75h-12.5c-0.414 0-0.75-0.335-0.75-0.75s0.336-0.75 0.75-0.75h12.5v-2.25c0-0.414 0.336-0.75 0.75-0.75h5.5c0.414 0 0.75 0.336 0.75 0.75v2.25zM23 16.982v-4h-4v4h4zM7.5 7v-2.25c0-0.414 0.336-0.75 0.75-0.75h5.5c0.414 0 0.75 0.336 0.75 0.75v2.25h12.5c0.414 0 0.75 0.336 0.75 0.75 0 0.412-0.333 0.748-0.745 0.75h-12.505v1.75c0 0.414-0.336 0.75-0.75 0.75h-5.5c-0.414 0-0.75-0.336-0.75-0.75v-1.75h-2.5c-0.414 0-0.75-0.336-0.75-0.75s0.336-0.75 0.75-0.75h2.5zM13 5.5h-4v4h4v-4z"></path>
</symbol>
<symbol id="icon-home" viewBox="0 0 32 32">
<title>home</title>
<path stroke-width="5.3333" stroke-miterlimit="4" stroke-linecap="butt" stroke-linejoin="miter" d="M2.667 2.667h26.667v26.667h-26.667v-26.667z"></path>
</symbol>
<symbol id="icon-instagram" viewBox="0 0 32 32">
<title>instagram</title>
<path d="M15.907 18.558c1.461 0 2.652-1.189 2.652-2.651 0-0.577-0.189-1.11-0.501-1.545-0.482-0.668-1.265-1.106-2.149-1.106s-1.667 0.437-2.15 1.105c-0.314 0.435-0.501 0.968-0.501 1.545-0.002 1.462 1.188 2.651 2.65 2.651z"></path>
<path d="M21.695 12.665v-2.553l-2.553 0.008 0.009 2.553z"></path>
<path d="M15.907 2.667c-7.301 0-13.241 5.94-13.241 13.241s5.94 13.241 13.241 13.241c7.3 0 13.241-5.94 13.241-13.241s-5.939-13.241-13.241-13.241zM23.437 14.362v6.165c0 1.606-1.306 2.911-2.91 2.911h-9.239c-1.605 0-2.91-1.305-2.91-2.911v-9.239c0-1.605 1.305-2.91 2.91-2.91h9.239c1.605 0 2.911 1.305 2.911 2.91v3.074z"></path>
<path d="M20.026 15.907c0 2.27-1.847 4.119-4.119 4.119s-4.118-1.849-4.118-4.119c0-0.546 0.109-1.068 0.303-1.545h-2.248v6.165c0 0.797 0.647 1.442 1.443 1.442h9.239c0.795 0 1.443-0.645 1.443-1.442v-6.165h-2.249c0.196 0.477 0.306 0.999 0.306 1.545z"></path>
</symbol>
<symbol id="icon-like-solid" viewBox="0 0 32 32">
<title>like-solid</title>
<path d="M27.544 6.433c-2.625-2.464-6.754-2.335-9.22 0.289l-1.915 2.040-1.917-2.040c-2.466-2.624-6.595-2.753-9.221-0.289-2.626 2.467-2.753 6.596-0.288 9.22l11.42 11.39 11.428-11.391c2.466-2.624 2.338-6.751-0.287-9.22z"></path>
</symbol>
<symbol id="icon-like-stroke" viewBox="0 0 32 32">
<title>like-stroke</title>
<path stroke-width="2" stroke-miterlimit="4" stroke-linecap="butt" stroke-linejoin="miter" d="M26.88 6.995c-2.469-2.317-6.351-2.196-8.671 0.272l-1.801 1.919-1.803-1.919c-2.319-2.467-6.202-2.589-8.671-0.272-2.469 2.32-2.589 6.203-0.271 8.671l10.74 10.712 10.747-10.712c2.319-2.468 2.198-6.349-0.27-8.671z"></path>
</symbol>
<symbol id="icon-minus" viewBox="0 0 32 32">
<title>minus</title>
<path d="M10 18v-4h12v4h-12z"></path>
</symbol>
<symbol id="icon-mobile-nav" viewBox="0 0 32 32">
<title>mobile-nav</title>
<path d="M5.333 6.222h10.667v1.778h-10.667v-1.778zM5.333 9.778h10.667v1.778h-10.667v-1.778zM5.333 13.333h10.667v1.778h-10.667v-1.778z"></path>
</symbol>
<symbol id="icon-next-sign" viewBox="0 0 32 32">
<title>next-sign</title>
<path d="M12.667 10l8 6.063-8 5.937z"></path>
</symbol>
<symbol id="icon-next" viewBox="0 0 32 32">
<title>next</title>
<path fill="#ff3837" style="fill: var(--color1, #ff3837)" d="M4 4h24v24h-24v-24z"></path>
<path fill="#fff" style="fill: var(--color2, #fff)" d="M12 10l8 6.063-8 5.937z"></path>
</symbol>
<symbol id="icon-notification" viewBox="0 0 32 32">
<title>notification</title>
<path fill="none" stroke="#444" stroke-width="5.3333" stroke-miterlimit="4" stroke-linecap="butt" stroke-linejoin="miter" style="stroke: var(--color3, #444)" d="M25.333 13.6c0-5.302-4.179-9.6-9.333-9.6s-9.333 4.298-9.333 9.6v13.067h18.667v-13.067z"></path>
<path d="M21.333 24c0 2.946-2.394 5.333-5.333 5.333-2.946 0-5.333-2.394-5.333-5.333 0.004 0 0.008 0 0.011 0h10.644c0.004 0 0.008 0 0.011-0z"></path>
<path d="M4 24h24v2.667h-24v-2.667z"></path>
</symbol>
<symbol id="icon-plus" viewBox="0 0 32 32">
<title>plus</title>
<path d="M14 10h4v12h-4v-12z"></path>
<path d="M10 18v-4h12v4h-12z"></path>
</symbol>
<symbol id="icon-profile" viewBox="0 0 32 32">
<title>profile</title>
<path stroke-width="5.3333" stroke-miterlimit="4" stroke-linecap="butt" stroke-linejoin="miter" d="M24 9.333c0 4.418-3.582 8-8 8s-8-3.582-8-8c0-4.418 3.582-8 8-8s8 3.582 8 8z"></path>
<path stroke-width="5.3333" stroke-miterlimit="4" stroke-linecap="butt" stroke-linejoin="miter" d="M27.927 29.333c0.048-0.438 0.073-0.883 0.073-1.333 0-6.627-5.373-12-12-12s-12 5.373-12 12c0 0.451 0.025 0.896 0.073 1.333h23.854z"></path>
</symbol>
<symbol id="icon-remove" viewBox="0 0 32 32">
<title>remove</title>
<path fill="#ff3837" style="fill: var(--color1, #ff3837)" d="M4 4h24v24h-24v-24z"></path>
<path fill="#fff" style="fill: var(--color2, #fff)" d="M10 18v-4h12v4h-12z"></path>
</symbol>
<symbol id="icon-reset" viewBox="0 0 32 32">
<title>reset</title>
<path d="M24.502 7.498c-4.665-4.665-12.339-4.665-17.003 0s-4.665 12.339 0 17.003c4.665 4.665 12.339 4.665 17.003 0s4.665-12.188 0-17.003zM17.881 19.536l-1.956-1.956-1.956 1.956c-0.451 0.451-1.053 0.451-1.505 0s-0.451-1.053 0-1.505l1.956-1.956-1.956-1.956c-0.451-0.451-0.451-1.053 0-1.505s1.053-0.451 1.505 0l1.956 1.956 1.956-1.956c0.451-0.451 1.053-0.451 1.505 0s0.451 1.053 0 1.505l-1.956 1.956 1.956 1.956c0.451 0.451 0.451 1.053 0 1.505-0.301 0.451-1.053 0.451-1.505 0z"></path>
</symbol>
<symbol id="icon-search" viewBox="0 0 32 32">
<title>search</title>
<path d="M20 21.886l1.886-1.886 7.542 7.542-1.886 1.886-7.542-7.542z"></path>
<path fill="none" stroke="#444" stroke-width="5.3333" stroke-miterlimit="4" stroke-linecap="butt" stroke-linejoin="miter" style="stroke: var(--color3, #444)" d="M25.333 13.333c0 6.627-5.373 12-12 12s-12-5.373-12-12c0-6.627 5.373-12 12-12s12 5.373 12 12z"></path>
</symbol>
<symbol id="icon-settings" viewBox="0 0 32 32">
<title>settings</title>
<path stroke-width="5.3333" stroke-miterlimit="4" stroke-linecap="butt" stroke-linejoin="miter" d="M16 4l10.392 6v12l-10.392 6-10.392-6v-12z"></path>
<path stroke-width="5.3333" stroke-miterlimit="4" stroke-linecap="butt" stroke-linejoin="miter" d="M20 16c0 2.209-1.791 4-4 4s-4-1.791-4-4c0-2.209 1.791-4 4-4s4 1.791 4 4z"></path>
</symbol>
<symbol id="icon-share" viewBox="0 0 32 32">
<title>share</title>
<path stroke-width="0.6667" stroke-miterlimit="4" stroke-linecap="butt" stroke-linejoin="miter" d="M23.484 20.24c-1.516 0-2.842 0.76-3.663 1.931l-7.011-3.958c0.063-0.317 0.126-0.665 0.126-1.013 0-0.317-0.032-0.633-0.095-0.95l7.042-3.989c0.821 1.14 2.147 1.868 3.632 1.868 2.463 0 4.484-2.026 4.484-4.496s-2.053-4.433-4.516-4.433c-2.463 0-4.484 2.026-4.484 4.496 0 0.412 0.063 0.823 0.158 1.203l-6.947 3.926c-0.789-1.235-2.179-2.090-3.758-2.090-2.463 0-4.453 1.995-4.453 4.464s2.021 4.496 4.453 4.496c1.547 0 2.937-0.823 3.726-2.026l6.979 3.926c-0.095 0.38-0.158 0.76-0.158 1.14 0 2.47 1.989 4.464 4.453 4.464s4.453-1.995 4.453-4.464c0-2.47-1.989-4.496-4.421-4.496zM23.484 6.625c1.674 0 3.032 1.361 3.032 3.040s-1.358 3.040-3.032 3.040c-1.674 0-3.032-1.361-3.032-3.040 0-1.646 1.358-3.040 3.032-3.040zM8.453 20.24c-1.674 0-3.032-1.361-3.032-3.040s1.358-3.040 3.032-3.040c1.674 0 3.032 1.361 3.032 3.040s-1.358 3.040-3.032 3.040zM23.484 27.744c-1.674 0-3.032-1.361-3.032-3.040s1.358-3.008 3.032-3.008c1.674 0 3.032 1.361 3.032 3.040s-1.358 3.008-3.032 3.008z"></path>
</symbol>
<symbol id="icon-tick" viewBox="0 0 32 32">
<title>tick</title>
<path d="M9.729 24.269l1.84 1.84 17.476-17.476-1.84-1.84-17.476 17.476zM3.29 17.83l6.439 6.439 1.84-1.84-6.439-6.439-1.84 1.84z"></path>
</symbol>
<symbol id="icon-top-request" viewBox="0 0 32 32">
<title>top-request</title>
<path fill="#fff" stroke="#000" stroke-width="0.8" stroke-miterlimit="4" stroke-linecap="butt" stroke-linejoin="miter" style="fill: var(--color2, #fff)" d="M27.196 25.456l-4.558-4.458c2.050-2.627 1.638-6.364-0.936-8.504s-6.411-1.935-8.732 0.467c-2.321 2.402-2.313 6.16 0.017 8.553s6.168 2.583 8.734 0.433l4.531 4.432 0.944-0.923zM17.6 22.137c-2.022 0.001-3.846-1.19-4.62-3.017s-0.347-3.93 1.082-5.329c1.43-1.399 3.58-1.817 5.448-1.061s3.087 2.54 3.087 4.517c-0.002 2.698-2.238 4.886-4.997 4.889v0zM16.421 3.333h1.197v5.378h-1.197v-5.378zM9.239 28.352l-0.969-0.704 3.161-4.35 0.969 0.704-3.161 4.35zM3.462 13.325l0.37-1.139 5.114 1.662-0.37 1.139-5.114-1.662z"></path>
</symbol>
<symbol id="icon-vkontakte" viewBox="0 0 32 32">
<title>vkontakte</title>
<path d="M15.966 2.667c-7.345 0-13.299 5.954-13.299 13.299s5.955 13.299 13.299 13.299c7.345 0 13.299-5.954 13.299-13.299s-5.955-13.299-13.299-13.299zM22.712 17.404c0.62 0.605 1.276 1.175 1.832 1.843 0.247 0.296 0.479 0.601 0.656 0.945 0.253 0.49 0.024 1.027-0.414 1.057l-2.725-0.001c-0.704 0.058-1.264-0.226-1.736-0.707-0.377-0.383-0.727-0.793-1.090-1.189-0.148-0.163-0.305-0.316-0.491-0.436-0.371-0.242-0.694-0.168-0.907 0.22-0.217 0.395-0.266 0.832-0.287 1.272-0.030 0.642-0.223 0.81-0.868 0.841-1.377 0.064-2.684-0.145-3.899-0.839-1.072-0.613-1.901-1.477-2.624-2.456-1.407-1.908-2.485-4.002-3.454-6.156-0.218-0.485-0.059-0.745 0.477-0.755 0.889-0.017 1.779-0.015 2.668-0.001 0.362 0.006 0.601 0.213 0.74 0.554 0.481 1.182 1.070 2.307 1.808 3.35 0.197 0.278 0.398 0.555 0.684 0.751 0.316 0.217 0.556 0.145 0.705-0.207 0.095-0.224 0.136-0.463 0.157-0.703 0.071-0.822 0.079-1.644-0.043-2.463-0.076-0.512-0.364-0.843-0.875-0.94-0.26-0.049-0.222-0.146-0.095-0.294 0.22-0.257 0.425-0.416 0.836-0.416l3.078-0.001c0.485 0.095 0.594 0.313 0.66 0.802l0.003 3.421c-0.006 0.189 0.095 0.75 0.435 0.873 0.272 0.090 0.452-0.128 0.614-0.301 0.738-0.783 1.264-1.708 1.735-2.665 0.208-0.422 0.387-0.859 0.561-1.296 0.13-0.324 0.331-0.483 0.696-0.477l2.964 0.004c0.087 0 0.176 0.001 0.263 0.016 0.5 0.085 0.636 0.3 0.482 0.788-0.243 0.766-0.716 1.404-1.178 2.043-0.495 0.685-1.023 1.345-1.514 2.033-0.451 0.629-0.415 0.945 0.145 1.491z"></path>
</symbol>
</defs>
</svg>
