<?xml version="1.0" encoding="UTF-8"?>
<svg width="24px" height="24px" viewBox="0 0 24 24" version="1.1" xmlns="http://www.w3.org/2000/svg" xmlns:xlink="http://www.w3.org/1999/xlink">
    <!-- Generator: Sketch 42 (36781) - http://www.bohemiancoding.com/sketch -->
    <title>Toprequest</title>
    <desc>Created with Sketch.</desc>
    <defs></defs>
    <g id="00.Library" stroke="none" stroke-width="1" fill="none" fill-rule="evenodd">
        <g id="Library" transform="translate(-2138.000000, -159.000000)" stroke="transparent" stroke-width="0.600000024" fill="#111111">
            <g id="Group-4-Copy-18" transform="translate(2138.000000, 159.000000)">
                <g id="top_request" transform="translate(2.000000, 2.000000)">
                    <path d="M18.396689,17.0922169 L14.9780552,13.7486157 C16.515194,11.7782778 16.2066031,8.97590096 14.2757535,7.37086998 C12.3449039,5.765839 9.4673686,5.91972827 7.72695954,7.7210965 C5.98655048,9.52246473 5.99220867,12.3410422 7.73983666,14.1357123 C9.48746465,15.9303824 12.3655956,16.073219 14.2899863,14.4607848 L17.6885792,17.784785 L18.396689,17.0922169 Z M11.2003563,14.6028919 C9.68375109,14.6035526 8.31610497,13.7105315 7.73525713,12.3403135 C7.15440929,10.9700954 7.47477178,9.39257799 8.5469348,8.34347964 C9.61909781,7.29438129 11.2318729,6.98034735 12.6330982,7.54783613 C14.0343235,8.11532492 14.9479938,9.45255576 14.9479939,10.9358745 C14.946154,12.9597288 13.2696263,14.6001906 11.2003563,14.6028919 L11.2003563,14.6028919 Z M10.316052,0.5 L11.2139006,0.5 L11.2139006,4.5331165 L10.316052,4.5331165 L10.316052,0.5 Z M4.92931017,19.2643824 L4.20293543,18.7366402 L6.57354183,15.4737804 L7.29991657,16.0015226 L4.92931017,19.2643824 Z M0.596295405,7.99351886 L0.873745866,7.13961414 L4.70946759,8.38591568 L4.43201713,9.2398204 L0.596295405,7.99351886 Z" id="Combined-Shape" fill="#ffffff"></path>
                </g>
            </g>
        </g>
    </g>
</svg>