<?xml version="1.0" encoding="UTF-8"?>
<svg width="24px" height="24px" viewBox="0 0 24 24" version="1.1" xmlns="http://www.w3.org/2000/svg" xmlns:xlink="http://www.w3.org/1999/xlink">
    <!-- Generator: Sketch 41.2 (35397) - http://www.bohemiancoding.com/sketch -->
    <title>Vkontakte</title>
    <desc>Created with Sketch.</desc>
    <defs></defs>
    <g id="00.Library" stroke="none" stroke-width="1" fill="none" fill-rule="evenodd">
        <g id="Library" transform="translate(-1214.000000, -159.000000)" fill="currentcolor">
            <g id="Group-4-Copy-9" transform="translate(1214.000000, 159.000000)">
                <path d="M11.9744898,2 C6.46591837,2 2,6.46571429 2,11.9744898 C2,17.4832653 6.46591837,21.9489796 11.9744898,21.9489796 C17.4830612,21.9489796 21.9489796,17.4832653 21.9489796,11.9744898 C21.9489796,6.46571429 17.4830612,2 11.9744898,2 Z M17.0340816,13.0532653 C17.4989796,13.5073469 17.9908163,13.9346939 18.4081633,14.4357143 C18.5930612,14.6573469 18.7673469,14.8865306 18.9,15.1442857 C19.0893878,15.5118367 18.9183673,15.914898 18.5893878,15.9367347 L16.5459184,15.9363265 C16.0181633,15.98 15.5981633,15.7671429 15.2440816,15.4063265 C14.9614286,15.1187755 14.6991837,14.8116327 14.4269388,14.5142857 C14.3157143,14.3922449 14.1985714,14.2773469 14.0589796,14.1869388 C13.7804082,14.0057143 13.5383673,14.0612245 13.3787755,14.3522449 C13.2161224,14.6483673 13.1789796,14.9765306 13.1634694,15.3061224 C13.1412245,15.7879592 12.9959184,15.9138776 12.512449,15.9365306 C11.4793878,15.984898 10.4991837,15.8281633 9.58816327,15.3073469 C8.7844898,14.8479592 8.16244898,14.1995918 7.62040816,13.4655102 C6.56489796,12.0344898 5.75653061,10.4638776 5.03020408,8.84816327 C4.86673469,8.48428571 4.98632653,8.28959184 5.3877551,8.28204082 C6.05469388,8.26918367 6.72163265,8.27081633 7.38857143,8.28142857 C7.66,8.28571429 7.83959184,8.44102041 7.94387755,8.69714286 C8.30428571,9.58387755 8.74612245,10.427551 9.29979592,11.21 C9.44734694,11.4183673 9.59795918,11.6261224 9.81244898,11.7732653 C10.0491837,11.9357143 10.2295918,11.8820408 10.3412245,11.6177551 C10.4126531,11.4497959 10.4434694,11.2702041 10.4589796,11.0902041 C10.5120408,10.4736735 10.5183673,9.85734694 10.4265306,9.24326531 C10.3693878,8.85897959 10.1532653,8.61081633 9.77020408,8.53816327 C9.57510204,8.50122449 9.60367347,8.42897959 9.69857143,8.31755102 C9.86326531,8.12489796 10.017551,8.00571429 10.3259184,8.00571429 L12.6346939,8.00530612 C12.9985714,8.07673469 13.0802041,8.24 13.1295918,8.60653061 L13.1316327,11.1722449 C13.1273469,11.3140816 13.2028571,11.7344898 13.457551,11.8273469 C13.6616327,11.8946939 13.7963265,11.7310204 13.9183673,11.6018367 C14.4720408,11.0142857 14.8665306,10.3208163 15.2197959,9.60306122 C15.3757143,9.28653061 15.5102041,8.95897959 15.6408163,8.63081633 C15.7379592,8.38816327 15.8889796,8.26877551 16.1628571,8.27285714 L18.3861224,8.2755102 C18.4516327,8.2755102 18.5181633,8.27612245 18.5830612,8.28734694 C18.9577551,8.35142857 19.0604082,8.51265306 18.9444898,8.87816327 C18.7620408,9.45244898 18.407551,9.93081633 18.0610204,10.4104082 C17.6895918,10.9238776 17.2934694,11.4193878 16.9257143,11.935102 C16.5877551,12.4065306 16.6144898,12.6438776 17.0340816,13.0532653 Z" id="Shape"></path>
            </g>
        </g>
    </g>
</svg>