<?xml version="1.0" encoding="UTF-8"?><svg width="163" height="152" viewBox="0 0 163 152" xmlns="http://www.w3.org/2000/svg" xmlns:xlink="http://www.w3.org/1999/xlink"><svg width="24" height="24" viewBox="0 0 24 24" id="add" x="48" y="80" xmlns="http://www.w3.org/2000/svg"><title>Add</title><g transform="translate(3 3)" fill="none" fill-rule="evenodd"><path fill="#FF3837" d="M0 0h18v18H0z"/><path fill="#FFF" d="M7.5 4.5h3v9h-3z"/><path fill="#FFF" d="M4.5 10.5v-3h9v3z"/></g></svg><svg width="24" height="24" viewBox="0 0 24 24" id="add-disabled" x="96" y="80" xmlns="http://www.w3.org/2000/svg"><title>AddDisabled</title><g transform="translate(3 3)" fill="none" fill-rule="evenodd"><path fill="#C3C3C3" d="M0 0h18v18H0z"/><path fill="#FFF" d="M7.5 4.5h3v9h-3z"/><path fill="#FFF" d="M4.5 10.5v-3h9v3z"/></g></svg><svg width="24" height="24" viewBox="0 0 24 24" id="arrow-right" x="24" y="32" xmlns="http://www.w3.org/2000/svg"><title>ArrowRight</title><path d="M9.548 4.5l7.398 7.397L9.5 19.343" stroke-width="1.5" stroke="CurrentColor" fill="none" fill-rule="evenodd"/></svg><svg width="24" height="24" viewBox="0 0 24 24" id="camera" x="48" y="32" xmlns="http://www.w3.org/2000/svg"><title>Camera</title><defs><path id="ada" d="M0 2.5h18.751v13.751H0z"/><mask id="adc" x="0" y="0" width="18.751" height="13.751" fill="#fff"><use xlink:href="#ada"/></mask><ellipse id="adb" cx="9.375" cy="9.375" rx="3.75" ry="3.75"/><mask id="add" x="0" y="0" width="7.5" height="7.5" fill="#fff"><use xlink:href="#adb"/></mask></defs><g transform="translate(2.672 3.912)" fill="none" fill-rule="evenodd"><use stroke="currentColor" mask="url(#adc)" stroke-width="3" xlink:href="#ada"/><path fill="currentColor" d="M0 0h5.625v1.25H0z"/><use stroke="currentColor" mask="url(#add)" stroke-width="3" xlink:href="#adb"/></g></svg><svg width="24" height="24" viewBox="0 0 24 24" id="collections" x="72" y="32" xmlns="http://www.w3.org/2000/svg"><title>Collections</title><defs><path id="aea" d="M3 0h15v1H3z"/><mask id="aed" x="0" y="0" width="15" height="1" fill="#fff"><use xlink:href="#aea"/></mask><path id="aeb" d="M1 2h18v1H1z"/><mask id="aee" x="0" y="0" width="18" height="1" fill="#fff"><use xlink:href="#aeb"/></mask><path id="aec" d="M0 4h20v16H0z"/><mask id="aef" x="0" y="0" width="20" height="16" fill="#fff"><use xlink:href="#aec"/></mask></defs><g transform="translate(2 2)" stroke="currentcolor" stroke-width="4" fill="none" fill-rule="evenodd"><use mask="url(#aed)" xlink:href="#aea"/><use mask="url(#aee)" xlink:href="#aeb"/><use mask="url(#aef)" xlink:href="#aec"/></g></svg><svg width="24" height="24" viewBox="0 0 24 24" id="cross" x="96" y="32" xmlns="http://www.w3.org/2000/svg"><title>Cross</title><path d="M20.51 2.75l1.005.986-8.366 8.215 8.366 8.214-1.004.986-8.367-8.214-8.366 8.214-1.005-.986 8.367-8.214-8.367-8.215 1.005-.986 8.366 8.214z" fill="currentColor" fill-rule="evenodd"/></svg><svg width="24" height="24" viewBox="0 0 24 24" id="eye" y="56" xmlns="http://www.w3.org/2000/svg"><title>Eye</title><g transform="translate(3 8)" fill="currentColor" fill-rule="evenodd"><path d="M16.41 5.72c-2.616-2.506-5.285-3.701-7.929-3.553-4.003.223-6.69 3.427-6.717 3.46L0 4.29C.134 4.128 3.35.296 8.35.016c3.314-.184 6.56 1.221 9.65 4.181L16.41 5.72z"/><path d="M9.044 9.884c-2.036 0-3.692-1.586-3.692-3.536s1.656-3.535 3.692-3.535c2.035 0 3.69 1.586 3.69 3.535 0 1.95-1.655 3.536-3.69 3.536zm0-4.917c-.796 0-1.443.62-1.443 1.381 0 .762.647 1.382 1.443 1.382.795 0 1.442-.62 1.442-1.382 0-.762-.647-1.381-1.442-1.381z"/></g></svg><svg width="24" height="24" viewBox="0 0 24 24" id="facebook" x="24" y="56" xmlns="http://www.w3.org/2000/svg"><title>Facebook</title><path d="M11.93 2C6.455 2 2 6.455 2 11.93c0 5.476 4.455 9.93 9.93 9.93 5.476 0 9.93-4.454 9.93-9.93 0-5.475-4.454-9.93-9.93-9.93zm2.47 10.28h-1.616v5.758H10.39V12.28H9.252v-2.035h1.138V8.928c0-.942.448-2.416 2.416-2.416l1.774.007v1.976h-1.287c-.21 0-.508.105-.508.554v1.196h1.824L14.4 12.28z" fill="currentcolor" fill-rule="evenodd"/></svg><svg width="24" height="24" viewBox="0 0 24 24" id="filter" x="48" y="56" xmlns="http://www.w3.org/2000/svg"><title>Filter</title><path d="M5.625 16.5v-1.688c0-.31.252-.562.563-.562h4.125c.31 0 .562.252.562.563V16.5h9.375a.563.563 0 0 1 0 1.125h-9.375v1.313c0 .31-.252.562-.563.562H6.189a.563.563 0 0 1-.563-.563v-1.312H3.75a.563.563 0 0 1 0-1.125h1.875zm4.125-1.125h-3v3h3v-3zm8.625-4.513V9.173a.563.563 0 0 0-.563-.563h-4.125a.563.563 0 0 0-.562.563v1.688H3.75a.563.563 0 0 0 0 1.124h9.375V13.3c0 .31.252.563.563.563h4.124c.311 0 .563-.252.563-.563v-1.313h1.875a.562.562 0 1 0 0-1.125h-1.875zm-1.125 1.874v-3h-3v3h3zM5.625 5.25V3.562c0-.31.252-.562.563-.562h4.125c.31 0 .562.252.562.563V5.25h9.375a.563.563 0 0 1 .004 1.125h-9.379v1.313c0 .31-.252.562-.563.562H6.189a.563.563 0 0 1-.563-.563V6.375H3.75a.563.563 0 0 1 0-1.125h1.875zM9.75 4.125h-3v3h3v-3z" fill="currentColor" fill-rule="evenodd"/></svg><svg width="24" height="24" viewBox="0 0 24 24" id="home" x="72" y="56" xmlns="http://www.w3.org/2000/svg"><title>Home</title><defs><path id="aja" d="M2 2h20v20H2z"/><mask id="ajb" x="0" y="0" width="20" height="20" fill="#fff"><use xlink:href="#aja"/></mask></defs><use mask="url(#ajb)" xlink:href="#aja" stroke="currentcolor" stroke-width="4" fill="none" fill-rule="evenodd"/></svg><svg width="24" height="24" viewBox="0 0 24 24" id="instagram" x="96" y="56" xmlns="http://www.w3.org/2000/svg"><title>Instagram</title><g transform="translate(2 2)" fill="currentColor" fill-rule="evenodd"><path d="M9.93 11.918a1.991 1.991 0 0 0 1.989-1.988c0-.432-.142-.832-.376-1.158-.361-.501-.949-.83-1.612-.83-.663 0-1.25.328-1.612.83a1.979 1.979 0 0 0-.376 1.158 1.99 1.99 0 0 0 1.987 1.988zM14.271 7.498V5.584h-.249l-1.666.006.007 1.915z"/><path d="M9.93 0C4.455 0 0 4.455 0 9.93c0 5.476 4.455 9.93 9.93 9.93 5.476 0 9.93-4.454 9.93-9.93C19.86 4.455 15.407 0 9.93 0zm5.648 8.772v4.624c0 1.204-.98 2.183-2.183 2.183h-6.93a2.185 2.185 0 0 1-2.182-2.183v-6.93c0-1.204.979-2.183 2.183-2.183h6.929c1.204 0 2.183.979 2.183 2.183v2.306z"/><path d="M13.02 9.93a3.093 3.093 0 0 1-3.09 3.09 3.093 3.093 0 0 1-3.088-3.09c0-.41.081-.8.227-1.158H5.383v4.624c0 .597.485 1.081 1.082 1.081h6.93c.596 0 1.082-.484 1.082-1.081V8.772H12.79c.147.357.23.749.23 1.158z"/></g></svg><svg width="24" height="24" viewBox="0 0 24 24" id="like-solid" y="80" xmlns="http://www.w3.org/2000/svg"><title>LikeSolid</title><path d="M20.658 4.825a4.895 4.895 0 0 0-6.916.217l-1.436 1.53-1.438-1.53a4.896 4.896 0 0 0-6.915-.217 4.893 4.893 0 0 0-.216 6.915l8.565 8.543 8.571-8.543a4.893 4.893 0 0 0-.215-6.915z" fill="currentcolor" fill-rule="evenodd"/></svg><svg width="24" height="24" viewBox="0 0 24 24" id="like-stroke" x="24" y="80" xmlns="http://www.w3.org/2000/svg"><title>LikeStroke</title><path d="M20.16 5.246a4.603 4.603 0 0 0-6.503.204l-1.351 1.44-1.352-1.44a4.604 4.604 0 0 0-6.504-.204 4.602 4.602 0 0 0-.203 6.503l8.055 8.034 8.06-8.034a4.601 4.601 0 0 0-.202-6.503z" stroke-width="1.5" stroke="currentcolor" fill="none" fill-rule="evenodd"/></svg><svg width="139" height="32" viewBox="0 0 139 32" id="logo-footer" xmlns="http://www.w3.org/2000/svg"><title>F5E31104-79C4-4F07-BCC2-BB92FB23D643</title><g fill="none" fill-rule="evenodd"><path fill="#E5E5E5" opacity=".25" d="M-369-59h1920v396H-369z"/><path fill="#FF0325" d="M0 0h139v32H0z"/><path d="M10.448 6.504V24h3.84V6.504h-3.84zm11.28 9.672c-.624 0-1.296.288-1.728.696a2.475 2.475 0 0 0-.744 1.752c0 .648.312 1.272.744 1.704.456.456 1.08.72 1.728.72a2.44 2.44 0 0 0 1.704-.72c.48-.456.744-1.08.744-1.704 0-.576-.264-1.272-.744-1.752-.432-.408-1.104-.696-1.704-.696zm6.432 2.448c0 1.44-.48 2.808-1.656 3.96-1.416 1.392-3.072 1.776-4.8 1.776-1.56 0-3.288-.312-4.776-1.776-1.176-1.152-1.656-2.52-1.656-3.96 0-1.92.864-3.168 1.656-3.936.888-.864 2.448-1.776 4.776-1.776 2.376 0 3.912.936 4.8 1.776.792.768 1.656 2.016 1.656 3.936zm7.032-2.448c-.624 0-1.296.288-1.728.696a2.475 2.475 0 0 0-.744 1.752c0 .648.312 1.272.744 1.704.456.456 1.08.72 1.728.72a2.44 2.44 0 0 0 1.704-.72c.48-.456.744-1.08.744-1.704 0-.576-.264-1.272-.744-1.752-.432-.408-1.104-.696-1.704-.696zm6.432 2.448c0 1.44-.48 2.808-1.656 3.96-1.416 1.392-3.072 1.776-4.8 1.776-1.56 0-3.288-.312-4.776-1.776-1.176-1.152-1.656-2.52-1.656-3.96 0-1.92.864-3.168 1.656-3.936.888-.864 2.448-1.776 4.776-1.776 2.376 0 3.912.936 4.8 1.776.792.768 1.656 2.016 1.656 3.936zm1.008-12.12V24h3.84v-4.392L50.384 24h5.328l-5.472-5.784 5.064-4.944h-5.208l-3.624 3.864V6.504h-3.84zM55.856 24h3.84v-5.304c0-.672 0-1.704.672-2.352.312-.312.648-.384 1.056-.384.384 0 .816.072 1.152.432.432.456.504 1.272.504 2.304V24h3.84v-5.496c0-.528.048-1.416.696-2.04.336-.312.696-.432 1.128-.432.504 0 .792.168 1.008.36.432.408.552 1.176.552 2.304V24h3.84v-6.984c0-.744-.048-2.016-1.008-2.952-.888-.864-2.184-.984-2.976-.984-.72 0-1.464.096-2.232.528-.48.264-1.032.72-1.464 1.488-.264-.528-.696-1.128-1.488-1.536-.576-.312-1.296-.48-2.064-.48-1.056 0-2.304.384-3.216 1.488v-1.296h-3.84V24zm28.056-9.696v-1.032h3.84V24h-3.84v-1.176c-.888 1.224-2.28 1.536-3.336 1.536-1.152 0-2.568-.336-3.864-1.704-1.032-1.104-1.536-2.328-1.536-3.936 0-2.016.792-3.432 1.656-4.296.912-.912 2.328-1.512 3.864-1.512 1.728 0 2.76.888 3.216 1.392zm-2.352 1.872c-.48 0-1.128.168-1.68.696a2.51 2.51 0 0 0-.768 1.752c0 .624.264 1.296.744 1.752.408.384 1.08.72 1.728.72.624 0 1.248-.264 1.728-.744a2.33 2.33 0 0 0 .72-1.728c0-.504-.144-1.176-.744-1.752-.36-.336-.912-.696-1.728-.696zm6.96 6.936l1.368-2.664a5.494 5.494 0 0 0 1.536.792c.48.168 1.08.264 1.488.264.288 0 .744-.072.984-.288.168-.168.192-.312.192-.504 0-.168-.024-.336-.192-.48-.24-.216-.624-.288-1.008-.384l-1.008-.24c-.528-.12-1.296-.312-1.872-.936-.408-.432-.696-1.032-.696-1.848 0-1.032.408-1.992 1.008-2.616.816-.84 2.256-1.296 3.84-1.296s2.808.432 3.432.696l-1.296 2.448c-.528-.24-1.32-.528-2.016-.528-.384 0-.648.072-.888.216-.216.12-.336.288-.336.528 0 .336.216.504.456.6.36.144.672.144 1.272.312l.696.192c.504.144 1.272.528 1.584.84.528.504.816 1.344.816 2.136 0 1.296-.552 2.16-1.08 2.664-1.248 1.248-3.072 1.344-3.96 1.344-.96 0-2.472-.12-4.32-1.248zm16.56-6.696h-2.184V24h-3.84v-7.584h-1.224v-3.144h1.224V9.744h3.84v3.528h2.184v3.144zm11.616 2.52v.408h-7.992c0 .576.216 1.344.672 1.8.24.24.72.528 1.584.528.096 0 .768-.024 1.248-.288.24-.144.504-.384.672-.72h3.672c-.168.6-.504 1.44-1.296 2.208-.792.768-2.04 1.488-4.368 1.488-1.416 0-3.12-.312-4.44-1.632-.696-.696-1.584-2.016-1.584-4.056 0-1.8.672-3.24 1.608-4.152.888-.864 2.28-1.56 4.392-1.56 1.248 0 2.856.264 4.128 1.464 1.512 1.44 1.704 3.312 1.704 4.512zm-7.872-1.8h4.344c-.096-.408-.336-.864-.624-1.152-.504-.504-1.2-.576-1.584-.576-.648 0-1.152.168-1.56.576a2.19 2.19 0 0 0-.576 1.152zm8.88 6.864V13.272h3.84v1.752c.384-.72.936-1.2 1.512-1.488.576-.312 1.272-.432 1.992-.432.096 0 .264.024.768.048v3.624c-.192-.096-.72-.384-1.656-.384-.504 0-1.2.072-1.752.576-.816.744-.864 1.872-.864 2.448V24h-3.84zm9.984.456a2.433 2.433 0 0 1-1.752-.744 2.444 2.444 0 0 1-.744-1.752c0-.864.432-1.44.744-1.752a2.433 2.433 0 0 1 1.752-.744c.6 0 1.248.24 1.776.768.408.408.696.936.696 1.728 0 .792-.288 1.32-.72 1.752a2.457 2.457 0 0 1-1.752.744z" fill="#FFF"/></g></svg><svg width="24" height="24" viewBox="0 0 24 24" id="minus" x="72" y="80" xmlns="http://www.w3.org/2000/svg"><title>Minus</title><path d="M7.5 13.5v-3h9v3z" fill="currentColor" fill-rule="evenodd"/></svg><svg width="24" height="24" viewBox="0 0 24 24" id="mobile-nav" y="32" xmlns="http://www.w3.org/2000/svg"><title>Menu</title><path d="M6 7h12v2H6V7zm0 4h12v2H6v-2zm0 4h12v2H6v-2z" fill="currentcolor" fill-rule="evenodd"/></svg><svg width="24" height="24" viewBox="0 0 24 24" id="next" y="104" xmlns="http://www.w3.org/2000/svg"><title>Next</title><g fill="none" fill-rule="evenodd"><path fill="#FF3837" d="M3 3h18v18H3z"/><path fill="#FFF" d="M9 7.5l6 4.547L9 16.5z"/></g></svg><svg width="24" height="24" viewBox="0 0 24 24" id="next-sign" x="24" y="104" xmlns="http://www.w3.org/2000/svg"><title>NextSign</title><path d="M9.5 7.5l6 4.547-6 4.453z" fill="currentColor" fill-rule="evenodd"/></svg><svg width="24" height="24" viewBox="0 0 24 24" id="notification" x="48" y="104" xmlns="http://www.w3.org/2000/svg"><title>Notification</title><defs><path d="M16 7.2C16 3.224 12.866 0 9 0S2 3.224 2 7.2V17h14V7.2z" id="asa"/><mask id="asb" x="0" y="0" width="14" height="17" fill="#fff"><use xlink:href="#asa"/></mask></defs><g transform="translate(3 3)" fill="none" fill-rule="evenodd"><use stroke="currentcolor" mask="url(#asb)" stroke-width="4" xlink:href="#asa"/><path d="M13 15c0 2.21-1.795 4-4 4-2.21 0-4-1.795-4-4h8z" fill="currentcolor"/><path fill="currentcolor" d="M0 15h18v2H0z"/></g></svg><svg width="24" height="24" viewBox="0 0 24 24" id="pencil" x="72" y="104" xmlns="http://www.w3.org/2000/svg"><title>Pencil</title><path d="M7.184 19.372l-3.099-3.1-1.55 4.65 4.649-1.55zM20.84 5.727l-1.257 1.257-3.099-3.099 1.257-1.264a.415.415 0 0 1 .585 0l2.514 2.517a.415.415 0 0 1 0 .59zM7.96 18.597l-3.1-3.099L15.703 4.656l3.107 3.103-10.85 10.838z" fill="currentcolor" fill-rule="evenodd"/></svg><svg width="24" height="24" viewBox="0 0 24 24" id="plus" x="96" y="104" xmlns="http://www.w3.org/2000/svg"><title>Plus</title><g transform="translate(7.5 7.5)" fill="currentColor" fill-rule="evenodd"><path d="M3 0h3v9H3z"/><path d="M0 6V3h9v3z"/></g></svg><svg width="24" height="24" viewBox="0 0 24 24" id="profile" x="139" xmlns="http://www.w3.org/2000/svg"><title>Profile</title><defs><circle id="ava" cx="9" cy="6" r="6"/><mask id="avc" x="0" y="0" width="12" height="12" fill="#fff"><use xlink:href="#ava"/></mask><path d="M17.945 21a9 9 0 1 0-17.89 0h17.89z" id="avb"/><mask id="avd" x="0" y="0" width="18" height="10" fill="#fff"><use xlink:href="#avb"/></mask></defs><g transform="translate(3 1)" stroke="currentcolor" stroke-width="4" fill="none" fill-rule="evenodd"><use mask="url(#avc)" xlink:href="#ava"/><use mask="url(#avd)" xlink:href="#avb"/></g></svg><svg width="24" height="24" viewBox="0 0 24 24" id="remove" x="139" y="24" xmlns="http://www.w3.org/2000/svg"><title>Remove</title><g transform="translate(3 3)" fill="none" fill-rule="evenodd"><path fill="#FF3837" d="M0 0h18v18H0z"/><path fill="#FFF" d="M4.5 10.5v-3h9v3z"/></g></svg><svg width="24" height="24" viewBox="0 0 24 24" id="reset" x="139" y="48" xmlns="http://www.w3.org/2000/svg"><title>Reset</title><path d="M18.376 5.624c-3.498-3.499-9.254-3.499-12.752 0-3.499 3.498-3.499 9.254 0 12.752 3.498 3.499 9.254 3.499 12.752 0 3.499-3.498 3.499-9.14 0-12.752zm-4.965 9.028l-1.467-1.467-1.468 1.467c-.338.339-.79.339-1.128 0-.339-.339-.339-.79 0-1.128l1.467-1.468-1.467-1.467c-.339-.338-.339-.79 0-1.128.339-.339.79-.339 1.128 0l1.468 1.467L13.41 9.46c.338-.339.79-.339 1.128 0 .339.338.339.79 0 1.128l-1.467 1.467 1.467 1.468c.339.338.339.79 0 1.128-.226.339-.79.339-1.128 0z" fill="currentColor" fill-rule="evenodd"/></svg><svg width="24" height="24" viewBox="0 0 24 24" id="search" x="139" y="72" xmlns="http://www.w3.org/2000/svg"><title>Search</title><defs><circle id="aya" cx="9" cy="9" r="9"/><mask id="ayb" x="0" y="0" width="18" height="18" fill="#fff"><use xlink:href="#aya"/></mask></defs><g transform="translate(1 1)" fill="none" fill-rule="evenodd"><path fill="currentcolor" d="M14 15.414L15.416 14l5.657 5.657-1.414 1.414z"/><use stroke="currentcolor" mask="url(#ayb)" stroke-width="4" xlink:href="#aya"/></g></svg><svg width="24" height="24" viewBox="0 0 24 24" id="settings" x="139" y="96" xmlns="http://www.w3.org/2000/svg"><title>Settings</title><defs><path id="aza" d="M8 0l7.794 4.5v9L8 18 .206 13.5v-9z"/><mask id="azc" x="0" y="0" width="15.588" height="18" fill="#fff"><use xlink:href="#aza"/></mask><circle id="azb" cx="8" cy="9" r="3"/><mask id="azd" x="0" y="0" width="6" height="6" fill="#fff"><use xlink:href="#azb"/></mask></defs><g transform="translate(4 3)" stroke="currentColor" stroke-width="4" fill="none" fill-rule="evenodd"><use mask="url(#azc)" xlink:href="#aza"/><use mask="url(#azd)" xlink:href="#azb"/></g></svg><svg width="24" height="24" viewBox="0 0 24 24" id="share" y="128" xmlns="http://www.w3.org/2000/svg"><title>Share</title><path d="M17.613 15.18c-1.137 0-2.131.57-2.747 1.448L9.608 13.66c.047-.238.095-.499.095-.76 0-.237-.024-.475-.071-.712l5.281-2.992a3.35 3.35 0 0 0 2.724 1.4c1.847 0 3.363-1.52 3.363-3.371C21 5.372 19.46 3.9 17.613 3.9S14.25 5.42 14.25 7.272c0 .309.047.617.118.902l-5.21 2.945c-.592-.926-1.634-1.567-2.819-1.567A3.34 3.34 0 0 0 3 12.9c0 1.852 1.516 3.372 3.34 3.372 1.16 0 2.202-.617 2.794-1.52l5.234 2.945a3.54 3.54 0 0 0-.118.855 3.34 3.34 0 1 0 6.679 0c0-1.853-1.492-3.372-3.316-3.372zm0-10.211a2.277 2.277 0 0 1 2.274 2.28 2.277 2.277 0 0 1-2.274 2.279 2.277 2.277 0 0 1-2.274-2.28c0-1.235 1.019-2.28 2.274-2.28zM6.34 15.179A2.277 2.277 0 0 1 4.066 12.9a2.277 2.277 0 0 1 2.273-2.28 2.277 2.277 0 0 1 2.274 2.28 2.277 2.277 0 0 1-2.274 2.28zm11.274 5.629a2.277 2.277 0 0 1-2.274-2.28 2.257 2.257 0 0 1 2.274-2.256 2.277 2.277 0 0 1 2.274 2.28 2.257 2.257 0 0 1-2.274 2.256z" stroke-width=".5" stroke="currentColor" fill="currentColor" fill-rule="evenodd"/></svg><svg width="24" height="24" viewBox="0 0 24 24" id="tick" x="24" y="128" xmlns="http://www.w3.org/2000/svg"><title>Tick</title><path d="M7.297 18.202l1.38 1.38L21.783 6.474l-1.38-1.38L7.297 18.202zm-4.83-4.83l4.83 4.83 1.38-1.38-4.83-4.829-1.38 1.38z" fill="currentcolor" fill-rule="evenodd"/></svg><svg width="24" height="24" viewBox="0 0 24 24" id="top-request" x="48" y="128" xmlns="http://www.w3.org/2000/svg"><title>Toprequest</title><path d="M20.397 19.092l-3.419-3.343a4.59 4.59 0 0 0-.702-6.378c-1.931-1.605-4.809-1.451-6.549.35a4.586 4.586 0 0 0 .013 6.415c1.747 1.794 4.626 1.937 6.55.325l3.399 3.324.708-.693zm-7.197-2.49c-1.516.002-2.884-.891-3.465-2.262a3.608 3.608 0 0 1 .812-3.997 3.81 3.81 0 0 1 4.086-.795c1.401.567 2.315 1.905 2.315 3.388-.002 2.024-1.678 3.664-3.748 3.667zM12.316 2.5h.898v4.033h-.898V2.5zM6.93 21.264l-.726-.527 2.37-3.263.727.528-2.37 3.262zM2.596 9.994l.278-.854 3.835 1.246-.277.854-3.836-1.246z" fill="#fff" stroke="transparent" stroke-width=".6" fill-rule="evenodd"/></svg><svg width="24" height="24" viewBox="0 0 24 24" id="vkontakte" x="72" y="128" xmlns="http://www.w3.org/2000/svg"><title>Vkontakte</title><path d="M11.974 2C6.466 2 2 6.466 2 11.974c0 5.51 4.466 9.975 9.974 9.975 5.51 0 9.975-4.466 9.975-9.975C21.949 6.466 17.483 2 11.974 2zm5.06 11.053c.465.454.957.882 1.374 1.383.185.221.36.45.492.708.19.368.018.77-.31.793h-2.044c-.528.043-.948-.17-1.302-.53-.283-.288-.545-.595-.817-.893a1.91 1.91 0 0 0-.368-.327c-.279-.181-.52-.126-.68.165-.163.296-.2.625-.216.954-.022.482-.167.608-.65.63-1.034.049-2.014-.108-2.925-.629-.804-.459-1.426-1.107-1.968-1.841-1.055-1.432-1.863-3.002-2.59-4.618-.163-.364-.044-.558.358-.566a56.862 56.862 0 0 1 2 0c.272.004.452.159.556.415.36.887.802 1.73 1.356 2.513.147.208.298.416.512.563.237.163.418.109.53-.155.07-.168.101-.348.117-.528a7.876 7.876 0 0 0-.032-1.847c-.058-.384-.274-.632-.657-.705-.195-.037-.166-.109-.071-.22.164-.193.319-.312.627-.312h2.309c.364.07.445.234.495.6l.002 2.566c-.005.142.07.562.326.655.204.068.338-.096.46-.225.554-.588.949-1.281 1.302-1.999.156-.316.29-.644.42-.972.098-.243.249-.362.523-.358l2.223.003c.066 0 .132 0 .197.011.375.064.477.226.361.591-.182.574-.536 1.053-.883 1.532-.371.514-.768 1.01-1.135 1.525-.338.472-.312.709.108 1.118z" fill="currentcolor" fill-rule="evenodd"/></svg></svg>